<?xml version="1.0" standalone="no"?>
<!DOCTYPE svg PUBLIC "-//W3C//DTD SVG 20010904//EN"
 "http://www.w3.org/TR/2001/REC-SVG-20010904/DTD/svg10.dtd">
<svg version="1.0" xmlns="http://www.w3.org/2000/svg"
 width="396.000000pt" height="398.000000pt" viewBox="0 0 396.000000 398.000000"
 preserveAspectRatio="xMidYMid meet">

<g transform="translate(0.000000,398.000000) scale(0.100000,-0.100000)"
fill="#000000" stroke="none">
<path d="M0 1990 l0 -1990 1980 0 1980 0 0 1990 0 1990 -1980 0 -1980 0 0
-1990z m2356 1174 c29 -37 44 -33 44 14 0 30 13 28 44 -9 32 -38 34 -93 5
-150 -23 -45 -21 -54 10 -44 57 18 131 122 131 184 0 21 3 23 37 16 83 -15
177 -80 218 -149 47 -80 57 -150 62 -444 l5 -272 -38 -35 c-46 -43 -56 -43
-71 -6 -18 50 -56 66 -148 65 -44 -1 -190 -2 -325 -3 -216 -2 -249 -4 -288
-21 -31 -14 -47 -29 -58 -55 -16 -39 -26 -38 -75 7 -26 25 -27 28 -34 204 -9
199 4 407 30 491 24 82 69 132 155 176 73 37 173 65 237 66 25 1 38 -6 59 -35z
m214 -943 c0 -5 -10 -7 -22 -3 -15 3 -19 2 -14 -7 6 -8 -4 -10 -36 -5 -32 4
-39 3 -28 -5 11 -8 -7 -11 -70 -11 -63 0 -81 3 -70 11 11 8 4 9 -27 6 -25 -3
-43 -1 -43 5 0 5 -10 6 -21 3 -15 -5 -19 -4 -15 4 9 14 346 16 346 2z m-77
-183 c-21 -10 -60 -18 -88 -18 -51 0 -121 15 -129 28 -2 4 54 7 126 7 l130 0
-39 -17z"/>
<path d="M2621 2945 c-97 -25 -121 -38 -121 -62 0 -12 8 -14 33 -9 17 3 75 9
127 12 79 5 104 3 153 -13 31 -11 57 -17 57 -14 0 3 -16 27 -34 52 -24 33 -43
48 -66 53 -44 8 -42 8 -149 -19z"/>
<path d="M1977 2940 c-23 -18 -67 -79 -67 -93 0 -3 24 4 53 15 46 18 68 20
185 15 72 -3 132 -2 132 3 0 22 -37 40 -119 59 -111 26 -151 26 -184 1z"/>
<path d="M2050 2840 c-126 -16 -181 -74 -165 -176 8 -53 50 -106 109 -136 59
-30 174 -30 234 1 61 31 82 71 82 153 0 61 -3 71 -30 102 -45 51 -123 70 -230
56z m163 -54 c45 -18 82 -89 73 -138 -15 -79 -74 -118 -179 -118 -77 0 -140
29 -175 81 -41 60 -14 136 61 170 51 23 172 26 220 5z"/>
<path d="M2038 2764 c-15 -8 -35 -28 -43 -44 -24 -46 -19 -78 19 -116 30 -30
40 -34 86 -34 46 0 56 4 86 34 25 25 34 43 34 68 0 83 -103 135 -182 92z m36
-30 c23 -9 20 -51 -4 -59 -27 -8 -40 1 -40 29 0 34 12 42 44 30z"/>
<path d="M2572 2837 c-77 -29 -110 -90 -99 -184 10 -93 76 -138 203 -138 73 0
86 3 130 30 118 74 128 227 18 280 -48 23 -203 31 -252 12z m230 -51 c40 -19
68 -66 68 -115 0 -37 -45 -92 -94 -115 -39 -18 -150 -22 -193 -5 -74 28 -106
101 -75 172 21 48 38 64 79 77 44 15 173 6 215 -14z"/>
<path d="M2619 2767 c-67 -45 -74 -114 -17 -162 39 -33 71 -40 118 -26 50 15
80 53 80 100 0 46 -23 79 -66 97 -47 20 -76 17 -115 -9z m45 -33 c22 -21 3
-56 -27 -52 -28 4 -35 38 -11 55 22 16 19 16 38 -3z"/>
<path d="M2448 2585 c-7 -7 17 -103 28 -114 7 -7 -5 73 -15 102 -4 10 -9 15
-13 12z"/>
<path d="M2253 2499 c-34 -22 -40 -29 -24 -29 10 0 70 49 61 50 -3 0 -20 -10
-37 -21z"/>
<path d="M2504 2511 c4 -6 22 -18 39 -27 30 -14 31 -14 12 1 -30 25 -59 39
-51 26z"/>
<path d="M2850 2414 c0 -8 5 -12 10 -9 6 3 10 10 10 16 0 5 -4 9 -10 9 -5 0
-10 -7 -10 -16z"/>
<path d="M1930 2404 c0 -8 5 -12 10 -9 6 4 8 11 5 16 -9 14 -15 11 -15 -7z"/>
<path d="M2450 2409 c-19 -5 -64 -7 -100 -3 l-65 6 23 -24 c19 -19 33 -23 86
-23 49 0 69 5 85 19 21 19 28 37 14 35 -5 -1 -24 -5 -43 -10z"/>
<path d="M2780 2400 c0 -5 5 -10 11 -10 5 0 7 5 4 10 -3 6 -8 10 -11 10 -2 0
-4 -4 -4 -10z"/>
<path d="M2000 2390 c0 -5 5 -10 10 -10 6 0 10 5 10 10 0 6 -4 10 -10 10 -5 0
-10 -4 -10 -10z"/>
<path d="M1970 2350 c0 -5 5 -10 10 -10 6 0 10 5 10 10 0 6 -4 10 -10 10 -5 0
-10 -4 -10 -10z"/>
</g>
</svg>
